<?xml version="1.0" encoding="UTF-8"?> <svg xmlns="http://www.w3.org/2000/svg" width="979" height="275" viewBox="0 0 979 275"><g id="Layer-1"><g id="g1"><path id="path1" fill="#50b5ef" stroke="none" d="M -33641.667969 63.340988 L 34620.832031 63.340988 M -33641.667969 162.652908 L 34620.832031 162.652908 M -33641.667969 166.322632 L 34620.832031 166.322632 M 107.954918 236.885574 L 122.926842 189.0625 L 128.875732 189.0625 L 143.847656 236.885574 L 139.28833 236.885574 L 134.503174 221.203613 L 117.041016 221.203613 L 112.255859 236.885574 L 107.954918 236.885574 Z M 118.20475 217.354324 L 133.369949 217.354324 L 125.836182 192.134613 L 118.20475 217.354324 Z"></path><path id="path2" fill="#50b5ef" stroke="none" d="M 173.238113 236.885574 L 173.238113 192.911774 L 159.075928 192.911774 L 159.075928 189.0625 L 191.864014 189.0625 L 191.864014 192.911774 L 177.701828 192.911774 L 177.701828 236.885574 L 173.238113 236.885574 Z"></path><path id="path3" fill="#50b5ef" stroke="none" d="M 212.980148 212.988281 C 212.980148 205.50943 214.699295 199.523926 218.137619 195.027679 C 221.575928 190.531403 226.106766 188.285309 231.734207 188.285309 C 237.359619 188.285309 241.876221 190.531403 245.281982 195.027679 C 248.687744 199.523926 250.390625 205.50943 250.390625 212.988281 C 250.390625 220.471191 248.687744 226.456711 245.281982 230.952957 C 241.876221 235.445145 237.359619 237.695313 231.734207 237.695313 C 226.106766 237.695313 221.575928 235.445145 218.137619 230.952957 C 214.699295 226.456711 212.980148 220.471191 212.980148 212.988281 Z M 217.635086 212.988281 C 217.635086 219.458008 218.896484 224.54834 221.419266 228.26741 C 223.942062 231.986496 227.380371 233.846024 231.734207 233.846024 C 236.088058 233.846024 239.526367 231.986496 242.049149 228.26741 C 244.571945 224.54834 245.831299 219.458008 245.831299 212.988281 C 245.831299 206.502289 244.571945 201.403809 242.049149 197.69693 C 239.526367 193.985992 236.088058 192.134613 231.734207 192.134613 C 227.380371 192.134613 223.942062 193.985992 221.419266 197.69693 C 218.896484 201.403809 217.635086 206.502289 217.635086 212.988281 Z"></path><path id="path4" fill="#50b5ef" stroke="none" d="M 276.841217 236.885574 L 276.841217 189.0625 L 284.731049 189.0625 L 297.827148 229.870605 L 311.01889 189.0625 L 318.876129 189.0625 L 318.876129 236.885574 L 314.770508 236.885574 L 314.770508 193.58725 L 313.800049 193.58725 L 299.73349 236.885574 L 295.983887 236.885574 L 281.94986 193.58725 L 280.946869 193.58725 L 280.946869 236.885574 L 276.841217 236.885574 Z"></path><path id="path5" fill="#50b5ef" stroke="none" d="M 358.164459 236.885574 L 358.164459 217.28923 L 343.516022 189.0625 L 348.205566 189.0625 L 360.266113 211.987305 L 372.521973 189.0625 L 377.209473 189.0625 L 362.593597 217.28923 L 362.593597 236.885574 L 358.164459 236.885574 Z"></path></g><g id="g2"><path id="path6" fill="#50b5ef" stroke="none" d="M 204.300949 63.053391 C 182.643631 63.053391 165.022781 86.126709 165.022781 114.487717 C 165.022781 142.84668 182.643631 165.922028 204.300949 165.922028 C 225.958252 165.922028 243.579102 142.84668 243.579102 114.487717 C 243.579102 86.126709 225.958252 63.053391 204.300949 63.053391 Z M 204.300949 153.422028 C 189.5345 153.422028 177.522781 135.955811 177.522781 114.487717 C 177.522781 93.019608 189.5345 75.553391 204.300949 75.553391 C 219.067383 75.553391 231.079102 93.019608 231.079102 114.487717 C 231.079102 135.955811 219.067383 153.422028 204.300949 153.422028 Z"></path><path id="path7" fill="#50b5ef" stroke="none" d="M 98.185219 79.03392 C 91.027832 69.211838 80.963387 63.053391 69.801842 63.053391 C 48.144531 63.053391 30.523682 86.126709 30.523682 114.487717 C 30.523682 142.84668 48.144531 165.922028 69.801842 165.922028 C 80.963387 165.922028 91.027832 159.763336 98.185219 149.940735 L 98.185219 166.320801 L 110.685219 166.320801 L 110.685219 63.340256 L 98.185219 63.340256 L 98.185219 79.03392 Z M 69.801842 153.422028 C 55.0354 153.422028 43.023682 135.955811 43.023682 114.487717 C 43.023682 93.019608 55.0354 75.553391 69.801842 75.553391 C 84.566246 75.553391 96.577965 93.019608 96.577965 114.487717 C 96.577965 135.955811 84.566246 153.422028 69.801842 153.422028 Z"></path><path id="path8" fill="#50b5ef" stroke="none" d="M 166.762283 75.553391 L 166.762283 63.053391 L 148.756912 63.053391 L 148.756912 33.754471 L 136.256912 33.754471 L 136.256912 63.053391 L 118.253578 63.053391 L 118.253578 75.553391 L 136.256912 75.553391 L 136.256912 166.320801 L 148.756912 166.320801 L 148.756912 75.553391 L 166.762283 75.553391 Z"></path><path id="path9" fill="#50b5ef" stroke="none" d="M 320.029694 63.053391 C 311.941284 63.053391 304.699188 66.920471 299.846893 72.98584 C 294.99411 66.920471 287.751526 63.053391 279.663086 63.053391 C 274.546814 63.053391 269.781738 64.622238 265.730804 67.291763 L 265.730804 63.340256 L 253.230789 63.340256 L 253.230789 90.979004 L 253.230789 166.320801 L 265.730804 166.320801 L 265.730804 90.979004 C 265.730804 82.472733 271.980804 75.553391 279.663086 75.553391 C 287.347412 75.553391 293.597412 82.472733 293.597412 90.979004 L 293.597412 166.320801 L 306.097412 166.320801 L 306.097412 90.979004 C 306.097412 82.472733 312.347412 75.553391 320.029694 75.553391 C 327.71402 75.553391 333.96402 82.472733 333.96402 90.979004 L 333.96402 166.320801 L 346.46402 166.320801 L 346.46402 90.979004 C 346.46402 75.579834 334.604889 63.053391 320.029694 63.053391 Z"></path><path id="path10" fill="#50b5ef" stroke="none" d="M 449.847412 80.371094 L 449.847412 67.871094 L 422.688049 67.871094 L 430.338531 62.487793 L 423.144531 52.266434 L 402.945953 66.479233 L 382.747406 52.266434 L 375.553375 62.487793 L 383.203888 67.871094 L 356.498199 67.871094 L 356.498199 80.371094 L 396.921783 80.371094 L 396.921783 86.830643 L 366.131592 86.830643 L 366.131592 99.330643 L 396.921783 99.330643 L 396.921783 105.792236 L 359.250885 105.792236 L 359.250885 118.292236 L 396.921783 118.292236 L 396.921783 119.934082 C 396.921783 121.574142 396.763367 123.174026 396.534485 124.751785 L 359.250885 124.751785 L 359.250885 137.251785 L 392.042297 137.251785 C 386.164612 146.925354 375.558716 153.422028 363.435883 153.422028 L 357.415771 153.422028 L 357.415771 165.922028 L 363.435883 165.922028 C 380.392975 165.922028 395.198822 156.670624 403.171783 142.973831 C 411.144775 156.670624 425.951385 165.922028 442.90976 165.922028 L 448.92984 165.922028 L 448.92984 153.422028 L 442.90976 153.422028 C 430.786896 153.422028 420.180511 146.925354 414.302063 137.251785 L 446.407074 137.251785 L 446.407074 124.751785 L 409.809113 124.751785 C 409.580231 123.174026 409.421783 121.574142 409.421783 119.934082 L 409.421783 118.292236 L 446.407074 118.292236 L 446.407074 105.792236 L 409.421783 105.792236 L 409.421783 99.330643 L 438.378906 99.330643 L 438.378906 86.830643 L 409.421783 86.830643 L 409.421783 80.371094 L 449.847412 80.371094 Z"></path></g></g><text id="--" xml:space="preserve"><tspan x="518" y="125" font-family="Futura" font-size="60" font-weight="500" fill="#222222" xml:space="preserve">Центр Атоми</tspan><tspan x="518" y="196.587109" font-family="Futura" font-size="60" font-weight="500" fill="#222222" xml:space="preserve">Династия</tspan></text></svg> 